<svg width="30" height="30" viewBox="0 0 30 30" fill="none" xmlns="http://www.w3.org/2000/svg">
<rect width="30" height="30" rx="15" fill="#41CDA5"/>
<path fill-rule="evenodd" clip-rule="evenodd" d="M2.96628 14.2265C3.23102 13.9642 3.67842 13.7875 4.10729 13.7875C5.24565 13.7875 6.21193 14.6681 6.21193 15.9421C6.21193 17.2161 5.24829 18.0967 4.10729 18.0967C3.66783 18.0967 3.22837 17.9227 2.96628 17.6577L2.92128 17.6149L2.86833 17.5507V18.011H2.78891H2.52947H2V11.55H2.86833V14.3282L2.92128 14.2693L2.96628 14.2265ZM2.79156 15.9448C2.79156 16.6915 3.31838 17.3071 4.06228 17.3071C4.8962 17.3071 5.33301 16.6942 5.33301 15.9448C5.33301 15.1954 4.8962 14.5798 4.06228 14.5798C3.31838 14.5798 2.79156 15.198 2.79156 15.9448ZM8.40373 17.3044C8.91202 17.3044 9.34089 16.8922 9.36736 16.381H9.37001V13.8758H10.2463V18.011H9.70622H9.45737H9.37001V17.5399L9.32501 17.5988L9.28 17.6577C9.10528 17.92 8.66582 18.0966 8.31637 18.0966C7.26537 18.0966 6.65118 17.3927 6.65118 16.4238V13.8732H7.52746V16.4238C7.54334 16.9886 7.81602 17.3044 8.40373 17.3044ZM21.7308 13.7877C20.5898 13.7877 19.7135 14.6683 19.7135 15.9423C19.7135 17.2163 20.6348 18.0968 21.7308 18.0968C22.5647 18.0968 23.1762 17.6579 23.5283 17.0423L22.7924 16.6917C22.66 17.0423 22.3026 17.3073 21.7758 17.3073C21.0292 17.3073 20.5924 16.78 20.5924 16.1644H23.6607V15.8994C23.658 14.6228 22.7818 13.7877 21.7308 13.7877ZM20.6348 15.3882C20.7671 14.9306 21.1166 14.5799 21.7308 14.5799C22.2576 14.5799 22.6944 14.9306 22.7394 15.3882H20.6348ZM24.0529 15.9423C24.0529 14.6683 24.9292 13.7877 26.0702 13.7877C27.1212 13.7877 27.9975 14.6228 28.0001 15.8994V16.1644H27.9128H24.9319C24.9319 16.78 25.3713 17.3073 26.1152 17.3073C26.642 17.3073 26.9994 17.0423 27.1318 16.6917L27.8678 17.0423C27.5157 17.6579 26.9041 18.0968 26.0702 18.0968C24.9742 18.0968 24.0529 17.2163 24.0529 15.9423ZM26.0702 14.5799C25.456 14.5799 25.1066 14.9306 24.9742 15.3882H27.0788C27.0338 14.9306 26.597 14.5799 26.0702 14.5799ZM17.3469 13.7875C16.918 13.7875 16.4706 13.9642 16.2058 14.2265L16.1608 14.2693L16.1079 14.3282V11.55H15.2396V18.011H15.769H16.0285H16.1079V17.5507L16.1608 17.6149L16.2058 17.6577C16.4679 17.9227 16.9074 18.0967 17.3469 18.0967C18.4879 18.0967 19.4515 17.2161 19.4515 15.9421C19.4515 14.6681 18.4852 13.7875 17.3469 13.7875ZM17.3018 17.3071C16.5579 17.3071 16.0311 16.6915 16.0311 15.9448C16.0311 15.198 16.5579 14.5798 17.3018 14.5798C18.1358 14.5798 18.5726 15.1954 18.5726 15.9448C18.5726 16.6942 18.1358 17.3071 17.3018 17.3071ZM12.7005 18.0967C11.5595 18.0967 10.5959 17.2188 10.5959 15.9421C10.5959 14.6654 11.5595 13.7875 12.6952 13.7875C13.1268 13.7875 13.5742 13.9615 13.8363 14.2265L13.8813 14.2693L13.9342 14.3282V11.55H14.8078V18.011H14.2784H14.0189H13.9395V17.5507L13.8866 17.6149L13.8415 17.6577C13.5768 17.92 13.14 18.0967 12.7005 18.0967ZM12.7429 14.5771C11.9116 14.5771 11.4722 15.1954 11.4722 15.9421C11.4722 16.6915 11.909 17.3071 12.7429 17.3044C13.4868 17.3044 14.0136 16.6915 14.0136 15.9421C14.0136 15.1927 13.4868 14.5771 12.7429 14.5771Z" fill="white"/>
</svg>
